<?xml version="1.0" encoding="UTF-8"?>
<svg id="Layer_2" data-name="Layer 2" xmlns="http://www.w3.org/2000/svg" viewBox="0 0 18.77 28.37">
  <defs>
    <style>
      .cls-1 {
        fill: #fff;
        stroke-width: 0px;
      }
    </style>
  </defs>
  <g id="Layer_1-2" data-name="Layer 1">
    <path class="cls-1" d="m9.38,0C4.21,0,0,4.21,0,9.38c0,2.08,1.33,5.48,4.07,10.38,1.94,3.47,3.84,6.37,3.92,6.49l1.39,2.11,1.4-2.11c.08-.12,1.98-3.01,3.92-6.49,2.74-4.9,4.07-8.3,4.07-10.38C18.77,4.21,14.56,0,9.38,0h0Zm0,14.19c-2.69,0-4.86-2.18-4.86-4.87s2.18-4.86,4.86-4.86,4.86,2.18,4.86,4.86-2.18,4.87-4.86,4.87h0Z"/>
  </g>
</svg>