<?xml version="1.0" encoding="UTF-8"?>
<svg id="Layer_2" data-name="Layer 2" xmlns="http://www.w3.org/2000/svg" viewBox="0 0 18.59 18.59">
  <defs>
    <style>
      .cls-1 {
        fill: #a3a3a3;
        stroke-width: 0px;
      }
    </style>
  </defs>
  <g id="_レイヤー_1" data-name="レイヤー 1">
    <g id="_4" data-name="4">
      <path class="cls-1" d="m18.42,17.58l-4.8-4.72c1.26-1.37,2.03-3.17,2.03-5.16,0-4.25-3.5-7.7-7.82-7.7S0,3.45,0,7.7s3.5,7.7,7.82,7.7c1.87,0,3.58-.65,4.92-1.72l4.82,4.74c.23.23.62.23.85,0,.24-.23.24-.61,0-.84Zm-10.59-3.37c-3.66,0-6.62-2.92-6.62-6.51S4.17,1.18,7.82,1.18s6.62,2.92,6.62,6.51-2.96,6.51-6.62,6.51Z"/>
    </g>
  </g>
</svg>