<?xml version="1.0" encoding="UTF-8"?>
<svg id="Layer_2" data-name="Layer 2" xmlns="http://www.w3.org/2000/svg" viewBox="0 0 55.81 55.81">
  <defs>
    <style>
      .cls-1 {
        fill: #969696;
      }

      .cls-1, .cls-2 {
        stroke-width: 0px;
      }

      .cls-2 {
        fill: #fff;
      }
    </style>
  </defs>
  <g id="_レイヤー_1" data-name="レイヤー 1">
    <g id="Facebook">
      <path class="cls-1" d="m55.81,27.91C55.81,12.49,43.32,0,27.91,0S0,12.49,0,27.91c0,13.93,10.2,25.47,23.55,27.57v-19.5h-7.09v-8.07h7.09v-6.15c0-6.99,4.17-10.86,10.54-10.86,3.05,0,6.25.54,6.25.54v6.87h-3.52c-3.47,0-4.55,2.15-4.55,4.36v5.23h7.74l-1.24,8.07h-6.5v19.5c13.34-2.09,23.55-13.64,23.55-27.57Z"/>
      <path class="cls-2" d="m38.77,35.97l1.24-8.07h-7.74v-5.23c0-2.21,1.08-4.36,4.55-4.36h3.52v-6.87s-3.19-.54-6.25-.54c-6.37,0-10.54,3.86-10.54,10.86v6.15h-7.09v8.07h7.09v19.5c1.42.22,2.88.34,4.36.34s2.94-.12,4.36-.34v-19.5h6.5Z"/>
    </g>
  </g>
</svg>