<?xml version="1.0" encoding="UTF-8"?>
<svg id="Layer_2" data-name="Layer 2" xmlns="http://www.w3.org/2000/svg" viewBox="0 0 55.81 55.81">
  <defs>
    <style>
      .cls-1 {
        fill: #969696;
      }

      .cls-1, .cls-2 {
        stroke-width: 0px;
      }

      .cls-2 {
        fill: #fff;
      }
    </style>
  </defs>
  <g id="_レイヤー_1" data-name="レイヤー 1">
    <g id="Line">
      <circle class="cls-1" cx="27.91" cy="27.91" r="27.91"/>
      <g id="FULL_COLOR_ICON" data-name="FULL COLOR ICON">
        <g id="TYPE_A" data-name="TYPE A">
          <g>
            <path class="cls-2" d="m46.83,25.22c0-8.51-8.53-15.43-19.02-15.43s-19.02,6.92-19.02,15.43c0,7.63,6.77,14.02,15.9,15.23.62.13,1.46.41,1.68.94.19.48.13,1.23.06,1.72,0,0-.22,1.34-.27,1.63-.08.48-.38,1.88,1.65,1.03,2.03-.86,10.95-6.45,14.94-11.04h0c2.76-3.02,4.08-6.09,4.08-9.5"/>
            <g>
              <path class="cls-1" d="m23.95,21.11h-1.33c-.2,0-.37.17-.37.37v8.29c0,.2.17.37.37.37h1.33c.2,0,.37-.17.37-.37v-8.29c0-.2-.17-.37-.37-.37"/>
              <path class="cls-1" d="m33.13,21.11h-1.33c-.2,0-.37.17-.37.37v4.92l-3.8-5.13s-.02-.03-.03-.04c0,0,0,0,0,0,0,0-.01-.02-.02-.02,0,0,0,0,0,0,0,0-.01-.01-.02-.02,0,0,0,0,0,0,0,0-.01,0-.02-.01,0,0,0,0-.01,0,0,0-.01,0-.02-.01,0,0,0,0-.01,0,0,0-.01,0-.02,0,0,0,0,0-.01,0,0,0-.01,0-.02,0,0,0,0,0-.01,0,0,0-.01,0-.02,0,0,0-.01,0-.02,0,0,0-.01,0-.02,0,0,0-.01,0-.02,0,0,0,0,0-.01,0h-1.33c-.2,0-.37.17-.37.37v8.29c0,.2.17.37.37.37h1.33c.2,0,.37-.17.37-.37v-4.92l3.8,5.13s.06.07.09.09c0,0,0,0,0,0,0,0,.02,0,.02.01,0,0,0,0,.01,0,0,0,.01,0,.02,0,0,0,.01,0,.02,0,0,0,0,0,.01,0,0,0,.02,0,.03,0,0,0,0,0,0,0,.03,0,.06.01.09.01h1.33c.2,0,.37-.17.37-.37v-8.29c0-.2-.17-.37-.37-.37"/>
              <path class="cls-1" d="m20.74,28.06h-3.62v-6.58c0-.2-.17-.37-.37-.37h-1.33c-.2,0-.37.17-.37.37v8.29h0c0,.1.04.19.1.26,0,0,0,0,0,0,0,0,0,0,0,0,.07.06.16.1.26.1h5.33c.2,0,.37-.17.37-.37v-1.33c0-.2-.17-.37-.37-.37"/>
              <path class="cls-1" d="m40.5,23.18c.2,0,.37-.17.37-.37v-1.33c0-.2-.17-.37-.37-.37h-5.33c-.1,0-.19.04-.26.1,0,0,0,0,0,0,0,0,0,0,0,0-.06.07-.1.16-.1.26h0v8.29h0c0,.1.04.19.1.26,0,0,0,0,0,0,0,0,0,0,0,0,.07.06.16.1.26.1h5.33c.2,0,.37-.17.37-.37v-1.33c0-.2-.17-.37-.37-.37h-3.62v-1.4h3.62c.2,0,.37-.17.37-.37v-1.33c0-.2-.17-.37-.37-.37h-3.62v-1.4h3.62Z"/>
            </g>
          </g>
        </g>
      </g>
    </g>
  </g>
</svg>