<?xml version="1.0" encoding="UTF-8"?>
<svg id="Layer_2" data-name="Layer 2" xmlns="http://www.w3.org/2000/svg" viewBox="0 0 33.73 20.96">
  <defs>
    <style>
      .cls-1 {
        fill: #243376;
      }

      .cls-1, .cls-2, .cls-3, .cls-4 {
        stroke-width: 0px;
      }

      .cls-2 {
        fill: #1e1718;
      }

      .cls-3 {
        fill: #fff;
      }

      .cls-4 {
        fill: #ec1b2a;
      }
    </style>
  </defs>
  <g id="_レイヤー_1" data-name="レイヤー 1">
    <g>
      <path class="cls-2" d="m0,19.67V0h29.08v19.67H0Zm33.73,1.29v-.07.07ZM0,19.67h29.08V0H0v19.67Z"/>
      <rect class="cls-1" width="29.08" height="19.67"/>
      <polygon class="cls-3" points="29.93 6.84 17.96 6.84 17.96 0 11.97 0 11.97 6.84 0 6.84 0 12.83 11.97 12.83 11.97 19.67 17.96 19.67 17.96 12.83 29.93 12.83 29.93 6.84"/>
      <polygon class="cls-3" points="29.08 17.41 3.34 0 0 0 0 2.28 25.71 19.67 29.08 19.67 29.08 17.41"/>
      <polygon class="cls-3" points="0 17.41 25.74 0 29.08 0 29.08 2.28 3.36 19.67 0 19.67 0 17.41"/>
      <polygon class="cls-4" points="29.08 7.7 16.25 7.7 16.25 0 12.83 0 12.83 7.7 0 7.7 0 11.12 12.83 11.12 12.83 18.81 16.25 18.81 16.25 11.12 29.08 11.12 29.08 7.7"/>
      <polygon class="cls-4" points="29.08 19.58 29.08 18.04 21.23 12.83 18.92 12.83 29.08 19.58"/>
      <polygon class="cls-4" points="29.69 0 27.37 0 17.96 6.26 17.96 6.84 19.4 6.84 29.69 0 29.69 0"/>
      <polygon class="cls-4" points="10.42 12.83 0 19.61 0 19.67 2.29 19.67 11.97 13.36 11.97 12.83 10.42 12.83"/>
      <polygon class="cls-4" points="0 .04 0 1.58 7.91 6.84 10.22 6.84 0 .04"/>
    </g>
  </g>
</svg>