<?xml version="1.0" encoding="UTF-8"?>
<svg id="Layer_2" data-name="Layer 2" xmlns="http://www.w3.org/2000/svg" viewBox="0 0 16 16">
  <defs>
    <style>
      .cls-1 {
        fill: #b0b0b0;
        stroke-width: 0px;
      }
    </style>
  </defs>
  <g id="_レイヤー_1" data-name="レイヤー 1">
    <g id="Layer_2-2" data-name="Layer 2">
      <path class="cls-1" d="m12.95,0H3.05C1.37,0,0,1.37,0,3.05v9.9c0,1.68,1.37,3.05,3.05,3.05h9.9c1.68,0,3.05-1.37,3.05-3.05V3.05c0-1.68-1.37-3.05-3.05-3.05Zm2.05,13c0,1.11-.9,2-2,2H3c-1.11,0-2-.9-2-2V3c0-1.11.9-2,2-2h9.99c1.11,0,2,.9,2,2v9.99Z"/>
      <path class="cls-1" d="m12.5,8.92c-.28,0-.5.22-.5.5v.88L4.7,3h1.88c.28,0,.5-.22.5-.5s-.22-.5-.5-.5H2.35c-.19,0-.35.17-.35.38h0v3.59c0,.31.22.56.5.56s.5-.25.5-.56v-2.08l7.3,8.11h-.88c-.28,0-.5.22-.5.5s.22.5.5.5h3.23c.19,0,.35-.15.35-.34h0v-3.24c0-.28-.22-.5-.5-.5Z"/>
    </g>
  </g>
</svg>