<?xml version="1.0" encoding="UTF-8"?>
<svg id="Layer_2" data-name="Layer 2" xmlns="http://www.w3.org/2000/svg" viewBox="0 0 21.15 21.15">
  <defs>
    <style>
      .cls-1 {
        fill: #c8c8c8;
        stroke-width: 0px;
      }
    </style>
  </defs>
  <g id="Layer_1-2" data-name="Layer 1">
    <g>
      <path class="cls-1" d="m14.42,3.36c0-.4-.32-.72-.72-.72s-.72.32-.72.72.32.72.72.72.72-.33.72-.72Z"/>
      <path class="cls-1" d="m20.79,3.01c-.23-.23-.53-.35-.86-.35h-3.32s-.66-.84-.66-.84c-.9-1.15-2.25-1.81-3.72-1.81h-.1c-.48,0-.96.07-1.42.21h-.03c-.61,0-1.19.24-1.62.67l-4.66,4.66c-.83.83-1,2.12-.4,3.14.05.09.12.18.18.27-.31.37-.61.75-.89,1.13C2.03,11.78.94,13.72.04,15.84c-.12.29.01.62.3.74.28.12.62-.02.74-.3.86-2.04,1.91-3.9,3.12-5.53.27-.36.55-.72.85-1.08.13.07.27.13.41.17,1.46.46,3.11-.08,4.01-1.28.84-1.12,1.47-2.29,1.86-3.48.1-.29-.06-.61-.36-.71-.3-.1-.61.06-.71.36-.36,1.07-.93,2.14-1.69,3.16-.64.85-1.75,1.2-2.78.88-.35-.11-.64-.34-.82-.66-.34-.57-.24-1.3.23-1.77L9.86,1.68c.44-.44,1.21-.44,1.65,0,.21.21.58.21.79,0,.15-.15.2-.36.14-.55,1.03.06,1.98.55,2.62,1.38l.83,1.06c.11.14.27.22.45.22h1.31s0,.11,0,.11c0,.46.29.86.74,1l1.64.51v.21c0,.37-.26.67-.62.73l-5.27.81s-.06.01-.08.02c-.66-.02-1.23-.29-1.82-.85-.11-.1-.25-.15-.4-.15-.15,0-.29.07-.39.17-.21.23-.2.58.02.79.54.51,1.09.84,1.69,1.01-.08.11-.15.23-.23.35-.08-.13-.19-.24-.33-.31-.28-.14-.61-.09-.84.11l-.78.67c-1.46,1.25-2.62,2.84-3.36,4.61-.74,1.77-1.05,3.72-.9,5.63l.02.24c.03.34,0,.69-.06,1.03-.06.3.14.6.44.66.14.03.3,0,.42-.08.12-.08.21-.21.24-.36.09-.44.11-.89.08-1.34l-.02-.24c-.13-1.74.15-3.5.82-5.11.67-1.61,1.72-3.05,3.05-4.18l.17-.14-.05,1.23s0,.05,0,.07c-.04.19-.09.35-.14.44l-.38.38c-.12.06-.26.1-.42.12-.31.04-.53.32-.49.63.04.28.28.49.56.49h.07c.77-.1,1.34-.5,1.66-1.15,0,0,0,0,.01,0l1.57.1c.85.06,1.54.71,1.65,1.55l.1.74c.06.46.44.8.89.82l.82.04c.14,0,.28.08.36.2.08.12.11.27.07.4l-.37,1.24c-.11.38-.44.66-.84.7l-2.58.28c-.45.05-.84.31-1.04.71-.21.4-.2.87.02,1.26l.07.12c.13.24.25.49.36.75.09.21.29.34.52.34.08,0,.15-.02.22-.05.14-.06.24-.17.3-.31.06-.14.05-.29,0-.43-.12-.29-.26-.57-.4-.84l-.08-.14c-.04-.06-.04-.13,0-.2.03-.07.09-.11.17-.11l2.58-.27c.85-.09,1.56-.68,1.8-1.5l.37-1.24c.14-.47.06-.97-.23-1.37-.28-.4-.73-.64-1.22-.67l-.67-.03-.08-.59c-.18-1.37-1.31-2.43-2.69-2.52l-1.33-.09c.48-1.1.97-1.94,1.51-2.56l5.07-.78c.91-.14,1.58-.91,1.58-1.84v-1.75c0-.32-.13-.63-.36-.86Zm-.77.86v.37l-1.25-.39v-.06h1.17s.04,0,.06.02c.02.02.03.04.03.06Z"/>
      <circle class="cls-1" cx="14.1" cy="13.94" r=".72"/>
    </g>
  </g>
</svg>