<?xml version="1.0" encoding="UTF-8"?>
<svg id="Layer_2" data-name="Layer 2" xmlns="http://www.w3.org/2000/svg" viewBox="0 0 7.25 10.96">
  <defs>
    <style>
      .cls-1 {
        fill: #969696;
        stroke-width: 0px;
      }
    </style>
  </defs>
  <g id="_レイヤー_1" data-name="レイヤー 1">
    <path class="cls-1" d="m3.62,0C1.63,0,0,1.63,0,3.63c0,.8.51,2.12,1.57,4.01.75,1.34,1.48,2.46,1.52,2.51l.54.82.54-.82s.77-1.16,1.52-2.51c1.06-1.89,1.57-3.21,1.57-4.01,0-2-1.63-3.63-3.63-3.63h0Zm0,5.48c-1.04,0-1.88-.84-1.88-1.88s.84-1.88,1.88-1.88,1.88.84,1.88,1.88-.84,1.88-1.88,1.88h0Z"/>
  </g>
</svg>