<?xml version="1.0" encoding="UTF-8"?>
<svg id="Layer_2" data-name="Layer 2" xmlns="http://www.w3.org/2000/svg" viewBox="0 0 16 16">
  <defs>
    <style>
      .cls-1 {
        fill: #b0b0b0;
        stroke-width: 0px;
      }
    </style>
  </defs>
  <g id="_レイヤー_1" data-name="レイヤー 1">
    <g>
      <path class="cls-1" d="m8,16c-2.14,0-4.14-.83-5.66-2.34S0,10.13,0,8,.83,3.85,2.34,2.34C3.85.83,5.86,0,8,0s4.14.83,5.66,2.34c1.51,1.51,2.34,3.52,2.34,5.66s-.83,4.14-2.34,5.66-3.52,2.34-5.66,2.34h0ZM8,1C4.14,1,1,4.14,1,8s3.14,7,7,7,7-3.14,7-7S11.86,1,8,1Z"/>
      <path class="cls-1" d="m7.89,7.5c-.69,0-1.25-.56-1.25-1.25s.56-1.25,1.25-1.25,1.25.56,1.25,1.25c0,.28.22.5.5.5s.5-.22.5-.5c0-1.07-.75-1.97-1.75-2.19v-.56c0-.28-.22-.5-.5-.5s-.5.22-.5.5v.56c-1,.23-1.75,1.12-1.75,2.19,0,1.24,1.01,2.25,2.25,2.25.69,0,1.25.56,1.25,1.25s-.56,1.25-1.25,1.25-1.25-.56-1.25-1.25c0-.28-.22-.5-.5-.5s-.5.22-.5.5c0,1.07.75,1.97,1.75,2.19v.56c0,.28.22.5.5.5s.5-.22.5-.5v-.56c1-.23,1.75-1.12,1.75-2.19,0-1.24-1.01-2.25-2.25-2.25Z"/>
    </g>
  </g>
</svg>