<?xml version="1.0" encoding="UTF-8"?>
<svg id="Layer_2" data-name="Layer 2" xmlns="http://www.w3.org/2000/svg" viewBox="0 0 16.9 16.89">
  <defs>
    <style>
      .cls-1 {
        fill: #f44e1e;
        stroke-width: 0px;
      }
    </style>
  </defs>
  <g id="_レイヤー_1" data-name="レイヤー 1">
    <path class="cls-1" d="m3.26,8.95c1.09,0,2.04-.54,2.63-1.36.57.82,1.51,1.36,2.58,1.36s2.01-.53,2.58-1.35c.59.82,1.54,1.35,2.62,1.35,2.07,0,3.64-2.01,3.13-4.02l-.99-3.92c-.15-.6-.68-1.01-1.3-1.01H2.37c-.61,0-1.15.42-1.3,1.01L.09,4.91c-.28,1.11.09,2.08.74,2.96v7.69c0,.74.6,1.34,1.33,1.34h12.56c.74,0,1.33-.6,1.33-1.34v-4.98c0-.32-.27-.59-.6-.59s-.6.26-.6.59v4.98c0,.09-.05.18-.14.18h-3.68v-4.57c0-.32-.26-.59-.59-.59h-4.02c-.32,0-.59.27-.59.59v4.57h-3.68c-.09,0-.14-.09-.14-.18v-6.85c.36.16.8.25,1.23.25h0ZM11.62,1.16h2.89c.08,0,.14.06.16.13l.99,3.92c.32,1.27-.67,2.56-1.99,2.56-1.13,0-2.05-.92-2.05-2.06V1.16Zm-5.13,0h3.97v4.56c0,1.1-.86,2.06-1.99,2.06s-1.98-.97-1.98-2.08V1.16Zm.54,10.61h2.82v3.97h-2.82v-3.97ZM1.23,5.19l.98-3.9c.02-.07.09-.13.16-.13h2.93v4.55c0,1.14-.92,2.07-2.07,2.08-1.33,0-2.33-1.29-2.01-2.58h0Z"/>
  </g>
</svg>