<?xml version="1.0" encoding="UTF-8"?>
<svg id="Layer_2" data-name="Layer 2" xmlns="http://www.w3.org/2000/svg" viewBox="0 0 17.16 17.16">
  <defs>
    <style>
      .cls-1 {
        stroke-width: 0px;
      }
    </style>
  </defs>
  <g id="_レイヤー_1" data-name="レイヤー 1">
    <path class="cls-1" d="m15.19.69c-.92-.92-2.42-.92-3.34,0l-.84.84L2.12,10.43l-.02.02s0,0,0,0c0,.01-.02.03-.03.04,0,0,0,0,0,0,0,.01-.01.02-.02.04,0,0,0,0,0,.01,0,.01,0,.02-.01.04,0,0,0,0,0,0L.03,16.54c-.06.17-.01.36.11.48.09.09.21.14.34.14.05,0,.1,0,.15-.02l5.93-1.98s0,0,0,0c.01,0,.03-.01.04-.02,0,0,0,0,0,0,.01,0,.03-.02.05-.03.01,0,.03-.02.04-.03,0,0,0,0,0,0,0,0,.01,0,.02-.02l9.73-9.73c.92-.92.92-2.42,0-3.34l-1.28-1.28ZM6.41,14.05l-3.29-3.29L11.35,2.53l3.29,3.29L6.41,14.05Zm-3.75-2.41l2.87,2.87-4.31,1.44,1.44-4.31Zm13.15-6.99l-.5.51-3.29-3.29.51-.51c.55-.55,1.45-.55,2,0l1.28,1.28c.55.56.55,1.45,0,2Z"/>
  </g>
</svg>