<?xml version="1.0" encoding="UTF-8"?>
<svg id="Layer_2" data-name="Layer 2" xmlns="http://www.w3.org/2000/svg" xmlns:xlink="http://www.w3.org/1999/xlink" viewBox="0 0 162.6 60.25">
  <defs>
    <style>
      .cls-1 {
        clip-path: url(#clippath);
      }

      .cls-2 {
        fill: none;
      }

      .cls-2, .cls-3, .cls-4, .cls-5, .cls-6 {
        stroke-width: 0px;
      }

      .cls-3 {
        fill: url(#linear-gradient);
      }

      .cls-4 {
        fill: #d0d1d8;
      }

      .cls-5 {
        fill: #264278;
      }

      .cls-6 {
        fill: #fff;
      }
    </style>
    <linearGradient id="linear-gradient" x1="0" y1="16.75" x2="56" y2="16.75" gradientTransform="translate(-4.32 49.69) rotate(23.07) scale(1 -1)" gradientUnits="userSpaceOnUse">
      <stop offset=".14" stop-color="#f4a91e"/>
      <stop offset="1" stop-color="#f4cf1f"/>
    </linearGradient>
    <clipPath id="clippath">
      <path class="cls-2" d="M55.27,30.55c2,4.67-7.66,13.3-21.58,19.27-13.92,5.98-26.84,7.03-28.84,2.37C2.84,47.52,12.5,6.74,26.43.76c13.92-5.98,26.84,25.12,28.84,29.79Z"/>
    </clipPath>
  </defs>
  <g id="Layer_2-2" data-name="Layer 2">
    <g id="_レイヤー_1" data-name=" レイヤー 1">
      <g>
        <g>
          <ellipse class="cls-3" cx="28" cy="45.25" rx="30.13" ry="10.06" transform="translate(-15.49 14.59) rotate(-23.07)"/>
          <ellipse class="cls-6" cx="30.5" cy="42.75" rx="27.39" ry="9.07" transform="translate(-14.16 15.13) rotate(-22.76)"/>
          <g class="cls-1">
            <g>
              <g>
                <polygon class="cls-4" points="18 57.25 25 57.25 25 34.44 18 29.67 18 57.25"/>
                <polygon class="cls-5" points="17 57.25 10 57.25 10 34.44 17 29.67 17 57.25"/>
              </g>
              <g>
                <polygon class="cls-4" points="28 59.25 35 59.25 35 22.31 28 17.54 28 59.25"/>
                <polygon class="cls-5" points="28 59.25 21 59.25 21 22.31 28 17.54 28 59.25"/>
              </g>
              <g>
                <polygon class="cls-4" points="40 52.25 47 52.25 47 29.44 40 24.67 40 52.25"/>
                <polygon class="cls-5" points="40 52.25 33 52.25 33 29.44 40 24.67 40 52.25"/>
              </g>
            </g>
          </g>
        </g>
        <g>
          <path class="cls-5" d="M65.45,50.76c-.21-.22-.31-.54-.31-.98v-22.01c0-.46.1-.8.31-1.02.21-.22.55-.33,1.03-.33h9.47c2.8,0,4.94.65,6.4,1.96s2.19,3.24,2.19,5.8c0,1.69-.4,3.14-1.2,4.33-.8,1.2-1.96,2.1-3.48,2.7l4.03,8.92c.07.14.11.28.11.4,0,.36-.22.54-.65.54h-2.97c-.31,0-.54-.04-.69-.13s-.28-.26-.4-.53l-3.66-8.6h-5.84v7.94c0,.44-.1.76-.31.98s-.56.33-1.07.33h-1.92c-.48,0-.83-.11-1.03-.33v.03ZM75.01,38.36c1.69,0,2.94-.33,3.74-.98.8-.65,1.2-1.72,1.2-3.19s-.36-2.51-1.09-3.19c-.73-.68-1.83-1.02-3.3-1.02h-5.77v8.38h5.22Z"/>
          <path class="cls-5" d="M88.41,50.76c-.21-.22-.31-.54-.31-.98v-22.01c0-.46.1-.8.31-1.02.21-.22.55-.33,1.03-.33h15.09c.48,0,.82.1,1,.29s.27.52.27.98v.98c0,.46-.09.79-.27,1s-.51.31-1,.31h-11.79v7.04h8.56c.48,0,.82.1,1.02.29.19.19.29.52.29.98v.91c0,.46-.1.79-.29,1s-.53.31-1.02.31h-8.56v7.07h11.75c.48,0,.82.1,1.02.31.19.21.29.54.29,1v.98c0,.44-.1.75-.29.94s-.53.29-1.02.29h-15.05c-.48,0-.83-.11-1.03-.33h0Z"/>
          <path class="cls-5" d="M109.3,50.76c-.21-.22-.31-.54-.31-.98v-22.01c0-.46.1-.8.31-1.02.21-.22.55-.33,1.03-.33h1.92c.48,0,.83.11,1.05.33s.33.56.33,1.02v22.01c0,.44-.1.76-.31.98s-.56.33-1.07.33h-1.92c-.48,0-.83-.11-1.03-.33Z"/>
          <path class="cls-5" d="M118.22,50.76c-.21-.22-.31-.54-.31-.98v-22.01c0-.46.1-.8.31-1.02.21-.22.56-.33,1.07-.33h1.67c.34,0,.6.05.8.15.19.1.39.29.58.58l11.97,16.61v-15.99c0-.46.1-.8.31-1.02.21-.22.55-.33,1.03-.33h1.92c.48,0,.83.11,1.05.33s.33.56.33,1.02v22.01c0,.44-.1.76-.31.98-.21.22-.56.33-1.07.33h-1.7c-.34,0-.59-.04-.76-.13-.17-.08-.36-.27-.58-.56l-11.97-16.58v15.96c0,.44-.1.76-.31.98s-.56.33-1.07.33h-1.92c-.48,0-.83-.11-1.03-.33h-.01Z"/>
          <path class="cls-5" d="M142.73,50.81c-.16-.18-.24-.5-.24-.96,0-.41.05-.77.16-1.07s.33-.67.67-1.11l13.09-17.7h-12.11c-.48,0-.83-.1-1.05-.31s-.33-.54-.33-1v-.98c0-.46.11-.79.33-.98.22-.19.57-.29,1.05-.29h17.05c.46,0,.77.1.94.29s.25.52.25.98-.05.79-.15,1.05c-.1.27-.33.64-.69,1.12l-13.06,17.7h12.62c.48,0,.83.1,1.03.31.21.21.31.54.31,1v.98c0,.44-.1.75-.31.94s-.55.29-1.03.29h-17.63c-.46,0-.77-.09-.92-.27h.02Z"/>
        </g>
      </g>
    </g>
  </g>
</svg>