<?xml version="1.0" encoding="UTF-8"?>
<svg id="Layer_2" data-name="Layer 2" xmlns="http://www.w3.org/2000/svg" xmlns:xlink="http://www.w3.org/1999/xlink" viewBox="0 0 261 237">
  <defs>
    <style>
      .cls-1 {
        clip-path: url(#clippath);
      }

      .cls-2 {
        fill: none;
      }

      .cls-2, .cls-3, .cls-4, .cls-5, .cls-6, .cls-7, .cls-8, .cls-9, .cls-10, .cls-11, .cls-12, .cls-13, .cls-14, .cls-15, .cls-16, .cls-17, .cls-18, .cls-19, .cls-20, .cls-21, .cls-22, .cls-23, .cls-24, .cls-25, .cls-26, .cls-27, .cls-28, .cls-29, .cls-30, .cls-31, .cls-32, .cls-33, .cls-34, .cls-35, .cls-36, .cls-37, .cls-38, .cls-39, .cls-40, .cls-41, .cls-42, .cls-43, .cls-44, .cls-45, .cls-46, .cls-47, .cls-48, .cls-49, .cls-50, .cls-51, .cls-52, .cls-53, .cls-54, .cls-55, .cls-56, .cls-57, .cls-58, .cls-59, .cls-60, .cls-61, .cls-62, .cls-63, .cls-64, .cls-65, .cls-66, .cls-67, .cls-68, .cls-69, .cls-70, .cls-71, .cls-72, .cls-73, .cls-74, .cls-75, .cls-76 {
        stroke-width: 0px;
      }

      .cls-77 {
        font-family: DINEngschriftLTPro, 'DIN 1451 LT Pro';
        font-size: 19.46px;
      }

      .cls-4 {
        fill: #f3f9fd;
      }

      .cls-5 {
        fill: #f7fbfe;
      }

      .cls-6 {
        fill: #f6fbfe;
      }

      .cls-7 {
        fill: #f2f9fd;
      }

      .cls-8 {
        fill: #f8fcfe;
      }

      .cls-9 {
        fill: #f9fcfe;
      }

      .cls-10 {
        fill: #51d1a2;
      }

      .cls-11 {
        fill: #472a29;
      }

      .cls-12 {
        fill: #4dc79a;
      }

      .cls-13 {
        fill: #588e99;
      }

      .cls-14 {
        fill: #44b088;
      }

      .cls-15 {
        fill: #425a92;
      }

      .cls-16 {
        fill: #d0e9f7;
      }

      .cls-17 {
        fill: #d1eaf8;
      }

      .cls-18 {
        fill: #cae7f6;
      }

      .cls-19 {
        fill: #dceff9;
      }

      .cls-20 {
        fill: #cfe9f7;
      }

      .cls-21 {
        fill: #c9e6f6;
      }

      .cls-22 {
        fill: #c6e5f6;
      }

      .cls-23 {
        fill: #cbe7f7;
      }

      .cls-24 {
        fill: #d8edf9;
      }

      .cls-25 {
        fill: #def0fa;
      }

      .cls-26 {
        fill: #dff0fa;
      }

      .cls-27 {
        fill: #daeef9;
      }

      .cls-28 {
        fill: #e1f1fa;
      }

      .cls-29 {
        fill: #e0f0fa;
      }

      .cls-30 {
        fill: #c8e6f6;
      }

      .cls-31 {
        fill: #c7e5f6;
      }

      .cls-32 {
        fill: #d5ecf8;
      }

      .cls-33 {
        fill: #e09e9e;
      }

      .cls-34 {
        fill: #d4ebf8;
      }

      .cls-35 {
        fill: #d2eaf8;
      }

      .cls-36 {
        fill: #d3ebf8;
      }

      .cls-37 {
        fill: #dbeff9;
      }

      .cls-38 {
        fill: #d4d4d4;
      }

      .cls-39 {
        fill: #d9eef9;
      }

      .cls-40 {
        fill: #d6ecf8;
      }

      .cls-41 {
        fill: #bfd2ff;
      }

      .cls-42 {
        fill: #d7edf9;
      }

      .cls-43 {
        fill: #cce8f7;
      }

      .cls-44 {
        fill: #cee8f7;
      }

      .cls-45 {
        fill: #cde8f7;
      }

      .cls-46 {
        fill: #cf7f64;
      }

      .cls-47 {
        fill: #b8b8b8;
      }

      .cls-48 {
        fill: #f1f8fd;
      }

      .cls-49 {
        fill: #fff;
      }

      .cls-50 {
        fill: #ecf6fc;
      }

      .cls-51 {
        fill: #e3f2fa;
      }

      .cls-52 {
        fill: #e8f4fb;
      }

      .cls-53 {
        fill: #eef7fc;
      }

      .cls-54 {
        fill: #e2f1fa;
      }

      .cls-55 {
        fill: #e4f2fb;
      }

      .cls-56 {
        fill: #eff7fc;
      }

      .cls-57 {
        fill: #edf7fc;
      }

      .cls-58 {
        fill: #e5e8eb;
      }

      .cls-59 {
        fill: #e5f3fb;
      }

      .cls-60 {
        fill: #ffcfcf;
      }

      .cls-61 {
        fill: #ffb3b3;
      }

      .cls-62 {
        fill: #fbfdfe;
      }

      .cls-63 {
        fill: #eaf5fc;
      }

      .cls-64 {
        fill: #ebebeb;
      }

      .cls-65 {
        fill: #ebf6fc;
      }

      .cls-66 {
        fill: #f0f8fd;
      }

      .cls-67 {
        fill: #fafdfe;
      }

      .cls-68 {
        fill: #f5fafd;
      }

      .cls-69 {
        fill: #e7f4fb;
      }

      .cls-70 {
        fill: #e9f5fb;
      }

      .cls-71 {
        fill: #e6f3fb;
      }

      .cls-72 {
        fill: #f5acac;
      }

      .cls-73 {
        fill: #f79878;
      }

      .cls-74 {
        fill: #f4fafd;
      }

      .cls-75 {
        fill: #f5c7c7;
      }

      .cls-76 {
        fill: #000837;
      }
    </style>
    <clipPath id="clippath">
      <path class="cls-2" d="m82.49,77.11c-7.75,4.93-19.26,3.89-28.5,6.76-7.63,2.37.44-7.14-22.79,1.99-12.37,4.86-3.62,15.13-3.62,15.13-13.58-.81-21.73,6.07-25.35,14.1-4.23,9.39-1.07,21.55,6.14,25.89,1.24.75,2.54,1.44,3.61,2.34,8.2,6.9-11.97,2.66-11.97,24.22v13.46h215.18s37.63-1.81,44.8-31.9c1.23-5.17,1.06-10.53-.97-15.54-1.65-4.06-4.7-8.2-10.33-9.67,0,0,12.08-1.32,12.08-16.54s-10.57-16.99-10.57-16.99c0,0,13.88-23.99-13.88-33.47-15.97-5.45-35.15-4.17-47.26,14.09,0,0-51.86-28.68-106.55,6.12Z"/>
    </clipPath>
  </defs>
  <g id="_レイヤー_1" data-name="レイヤー 1">
    <g>
      <ellipse class="cls-38" cx="145" cy="213.5" rx="54" ry="7.5"/>
      <g>
        <g>
          <path class="cls-38" d="m155.34,213h-25.52c-5.43,0-8.83-5.88-6.11-10.59l30.53-52.89c1.26-2.18,3.59-3.53,6.11-3.53h25.52c5.43,0,8.83,5.88,6.11,10.59l-30.53,52.89c-1.26,2.18-3.59,3.53-6.11,3.53Z"/>
          <path class="cls-58" d="m158.51,213h-25.52c-5.43,0-8.83-5.88-6.11-10.59l30.53-52.89c1.26-2.18,3.59-3.53,6.11-3.53h25.52c5.43,0,8.83,5.88,6.11,10.59l-30.53,52.89c-1.26,2.18-3.59,3.53-6.11,3.53Z"/>
          <g class="cls-1">
            <polygon class="cls-62" points="245.8 181 264 180.46 264 181 245.8 181"/>
            <polygon class="cls-67" points="149.92 181 264 177.63 264 180.46 245.8 181 149.92 181"/>
            <polygon class="cls-9" points="54.05 181 264 174.79 264 177.63 149.92 181 54.05 181"/>
            <polygon class="cls-8" points="-2 179.82 264 171.96 264 174.79 54.1 181 -2 181 -2 179.82"/>
            <polygon class="cls-5" points="-2 176.64 264 168.77 264 171.61 -2 179.47 -2 176.64"/>
            <polygon class="cls-6" points="-2 173.8 264 165.94 264 168.77 -2 176.64 -2 173.8"/>
            <polygon class="cls-68" points="-2 170.97 264 163.1 264 165.94 -2 173.8 -2 170.97"/>
            <polygon class="cls-74" points="-2 168.13 264 160.27 264 163.1 -2 170.97 -2 168.13"/>
            <polygon class="cls-4" points="-2 165.3 264 157.43 264 160.27 -2 168.13 -2 165.3"/>
            <polygon class="cls-7" points="-2 162.46 264 154.6 264 157.43 -2 165.3 -2 162.46"/>
            <polygon class="cls-48" points="-2 159.63 264 151.77 264 154.6 -2 162.46 -2 159.63"/>
            <polygon class="cls-66" points="-2 156.8 264 148.93 264 151.76 -2 159.63 -2 156.8"/>
            <polygon class="cls-56" points="-2 153.96 264 146.1 264 148.93 -2 156.79 -2 153.96"/>
            <polygon class="cls-53" points="-2 151.13 264 143.26 264 146.1 -2 153.96 -2 151.13"/>
            <polygon class="cls-57" points="-2 148.29 264 140.43 264 143.26 -2 151.13 -2 148.29"/>
            <polygon class="cls-50" points="-2 145.46 264 137.59 264 140.43 -2 148.29 -2 145.46"/>
            <polygon class="cls-65" points="-2 142.62 264 134.76 264 137.59 -2 145.46 -2 142.62"/>
            <polygon class="cls-63" points="-2 139.79 264 131.92 264 134.76 -2 142.62 -2 139.79"/>
            <polygon class="cls-70" points="-2 136.95 264 129.09 264 131.92 -2 139.79 -2 136.95"/>
            <polygon class="cls-52" points="-2 134.12 264 126.26 264 129.09 -2 136.95 -2 134.12"/>
            <polygon class="cls-69" points="-2 131.29 264 123.42 264 126.25 -2 134.12 -2 131.29"/>
            <polygon class="cls-71" points="-2 128.45 264 120.59 264 123.42 -2 131.28 -2 128.45"/>
            <polygon class="cls-59" points="-2 125.62 264 117.75 264 120.59 -2 128.45 -2 125.62"/>
            <polygon class="cls-55" points="-2 122.78 264 114.92 264 117.75 -2 125.62 -2 122.78"/>
            <polygon class="cls-51" points="-2 119.95 264 112.08 264 114.92 -2 122.78 -2 119.95"/>
            <polygon class="cls-54" points="-2 117.11 264 109.25 264 112.08 -2 119.95 -2 117.11"/>
            <polygon class="cls-28" points="-2 114.28 264 106.41 264 109.25 -2 117.11 -2 114.28"/>
            <polygon class="cls-29" points="-2 111.44 264 103.58 264 106.41 -2 114.28 -2 111.44"/>
            <polygon class="cls-26" points="-2 108.61 264 100.75 264 103.58 -2 111.44 -2 108.61"/>
            <polygon class="cls-25" points="-2 105.78 264 97.91 264 100.75 -2 108.61 -2 105.78"/>
            <polygon class="cls-19" points="-2 102.94 264 95.08 264 97.91 -2 105.77 -2 102.94"/>
            <polygon class="cls-37" points="-2 100.11 264 92.24 264 95.08 -2 102.94 -2 100.11"/>
            <polygon class="cls-27" points="-2 97.27 264 89.41 264 92.24 -2 100.11 -2 97.27"/>
            <polygon class="cls-39" points="-2 94.44 264 86.57 264 89.41 -2 97.27 -2 94.44"/>
            <polygon class="cls-24" points="-2 91.6 264 83.74 264 86.57 -2 94.44 -2 91.6"/>
            <polygon class="cls-42" points="-2 88.77 264 80.9 264 83.74 -2 91.6 -2 88.77"/>
            <polygon class="cls-40" points="-2 85.93 264 78.07 264 80.9 -2 88.77 -2 85.93"/>
            <polygon class="cls-32" points="-2 83.1 264 75.24 264 78.07 -2 85.93 -2 83.1"/>
            <polygon class="cls-34" points="-2 80.27 264 72.4 264 75.24 -2 83.1 -2 80.27"/>
            <polygon class="cls-36" points="-2 77.43 264 69.57 264 72.4 -2 80.27 -2 77.43"/>
            <polygon class="cls-35" points="-2 74.6 264 66.73 264 69.57 -2 77.43 -2 74.6"/>
            <polygon class="cls-17" points="-2 71.76 264 63.9 264 66.73 -2 74.6 -2 71.76"/>
            <polygon class="cls-16" points="-2 68.93 264 61.06 264 63.9 -2 71.76 -2 68.93"/>
            <polygon class="cls-20" points="-2 66.09 264 58.23 264 61.06 -2 68.93 -2 66.09"/>
            <polygon class="cls-44" points="-2 63.26 264 55.4 264 58.23 -2 66.09 -2 63.26"/>
            <polygon class="cls-45" points="-2 60.42 264 52.56 264 55.39 -2 63.26 -2 60.42"/>
            <polygon class="cls-43" points="-2 57.59 264 49.73 264 52.56 -2 60.42 -2 57.59"/>
            <polygon class="cls-23" points="-2 54.76 264 46.89 264 49.73 -2 57.59 -2 54.76"/>
            <polygon class="cls-18" points="-2 51.92 264 44.06 264 46.89 -2 54.76 -2 51.92"/>
            <polygon class="cls-21" points="-2 49.13 239.23 42 264 42 264 44.1 -2 51.97 -2 49.13"/>
            <polygon class="cls-30" points="-2 46.3 143.41 42 239.29 42 -2 49.13 -2 46.3"/>
            <polygon class="cls-31" points="-2 43.46 47.54 42 143.41 42 -2 46.3 -2 43.46"/>
            <polygon class="cls-22" points="47.54 42 -2 43.46 -2 42 47.54 42"/>
          </g>
          <polyline class="cls-38" points="142.4 180.48 175.68 191 181.64 180.67"/>
          <path class="cls-3" d="m155.35,214h-25.61c-2.45,0-4.83-1.1-6.22-3.12-1.63-2.37-1.74-5.34-.33-7.79l30.86-53.45c1.3-2.24,3.71-3.64,6.3-3.64h25.61c2.45,0,4.83,1.1,6.22,3.12,1.63,2.37,1.74,5.34.33,7.79l-30.86,53.45c-1.3,2.24-3.71,3.64-6.3,3.64Zm5-68c-2.44,0-4.71,1.31-5.93,3.43l-30.77,53.3c-1.37,2.37-1.23,5.24.42,7.5,1.32,1.81,3.51,2.77,5.75,2.77h25.54c2.44,0,4.71-1.31,5.93-3.42l30.77-53.3c1.37-2.37,1.22-5.24-.42-7.5-1.32-1.81-3.51-2.77-5.75-2.77h-25.54Z"/>
          <line class="cls-38" x1="182" y1="181" x2="142" y2="180.81"/>
          <path class="cls-49" d="m166.3,188h-14.23c-2.96,0-4.8-3.2-3.32-5.76l16.93-29.32c.69-1.19,1.95-1.92,3.32-1.92h14.23c2.96,0,4.8,3.2,3.32,5.76l-16.93,29.32c-.69,1.19-1.95,1.92-3.32,1.92Z"/>
          <path class="cls-38" d="m102.87,180h114.09c10.18,0,13.67-7.66,7.79-17.11l-39.69-63.79c-5.88-9.45-18.89-17.11-29.07-17.11H41.9c-10.18,0-13.67,7.66-7.79,17.11l39.69,63.79c5.88,9.45,18.89,17.11,29.07,17.11Z"/>
          <path class="cls-58" d="m106.36,175h114.09c10.18,0,13.67-7.66,7.79-17.11l-39.69-63.79c-5.88-9.45-18.89-17.11-29.07-17.11H45.39c-10.18,0-13.67,7.66-7.79,17.11l39.69,63.79c5.88,9.45,18.89,17.11,29.07,17.11Z"/>
          <path class="cls-3" d="m220.98,175h-114.78c-10.29,0-23.49-7.76-29.42-17.3l-39.93-64.18c-3.04-4.88-3.72-9.59-1.88-12.91,1.65-2.98,5.16-4.61,9.89-4.61h114.78c10.29,0,23.49,7.76,29.42,17.31l39.93,64.18c3.04,4.88,3.72,9.59,1.88,12.91-1.65,2.97-5.16,4.61-9.89,4.61ZM45.03,77c-4.56,0-7.94,1.56-9.51,4.4-1.77,3.18-1.09,7.73,1.86,12.47l39.85,64.05c5.86,9.42,18.88,17.08,29.02,17.08h114.56c4.56,0,7.94-1.56,9.51-4.4,1.77-3.18,1.09-7.73-1.86-12.47l-39.85-64.05c-5.86-9.42-18.88-17.08-29.02-17.08H45.03Z"/>
          <path class="cls-3" d="m215,181h-112.23c-20.11-.15-31.32-20.54-31.43-20.75l-37.76-60.69.34-.21,37.77,60.7c.12.22,11.21,20.4,31.08,20.95h112.23Z"/>
          <polygon class="cls-49" points="92.67 161 219.38 160.67 171.72 86 47.39 87.83 92.67 161"/>
          <path class="cls-3" d="m93.07,162.34l-.06-.1-46.56-75.24.89,1,124.6-1.82.06.09,47.68,74.73-.28,1-126.34.34Zm-45.79-74.51l45.28,73.17,126.91-.33-47.65-74.67-124.54,1.83Z"/>
          <g>
            <rect class="cls-38" x="104" y="25" width="53" height="121"/>
            <polygon class="cls-61" points="78 113.2 78 63 116 63 116 146 98.27 146 78 113.2"/>
            <rect class="cls-72" x="116" y="63" width="17" height="83"/>
            <rect class="cls-3" x="89" y="63" width="42" height="1"/>
            <rect class="cls-60" x="84" y="67" width="6" height="11"/>
            <rect class="cls-60" x="94" y="67" width="6" height="11"/>
            <rect class="cls-60" x="104" y="67" width="6" height="11"/>
            <rect class="cls-60" x="84" y="84" width="6" height="10"/>
            <rect class="cls-60" x="94" y="84" width="6" height="10"/>
            <rect class="cls-60" x="104" y="84" width="6" height="10"/>
            <rect class="cls-60" x="84" y="96" width="6" height="10"/>
            <rect class="cls-60" x="94" y="96" width="6" height="10"/>
            <rect class="cls-60" x="104" y="96" width="6" height="10"/>
            <rect class="cls-60" x="84" y="109" width="6" height="10"/>
            <rect class="cls-60" x="94" y="109" width="6" height="10"/>
            <rect class="cls-60" x="104" y="109" width="6" height="10"/>
            <rect class="cls-12" x="75" y="56" width="41" height="7"/>
            <rect class="cls-14" x="116" y="56" width="21" height="7" transform="translate(253 119) rotate(180)"/>
            <polygon class="cls-33" points="126.02 63 133 68.26 133 63 126.02 63"/>
            <rect class="cls-47" x="102" y="16" width="57" height="8"/>
            <rect class="cls-60" x="157" y="49" width="24" height="97"/>
            <polygon class="cls-75" points="189 145.99 189 62.05 182 49.05 182 146 189 145.99"/>
            <g>
              <rect class="cls-64" x="112" y="28" width="11" height="24"/>
              <rect class="cls-64" x="125" y="28" width="11" height="24"/>
              <rect class="cls-64" x="138" y="28" width="11" height="24"/>
            </g>
            <polygon class="cls-10" points="151.17 24 157 31.26 157 24 151.17 24"/>
            <rect class="cls-47" x="141" y="30" width="8" height="22"/>
            <rect class="cls-47" x="141" y="60" width="8" height="22"/>
            <rect class="cls-47" x="141" y="90" width="8" height="22"/>
            <rect class="cls-47" x="141" y="120" width="8" height="22"/>
            <rect class="cls-47" x="128" y="30" width="8" height="22"/>
            <rect class="cls-47" x="115" y="30" width="8" height="22"/>
            <polygon class="cls-12" points="137.18 63 135 65.26 135 146 133 146 133 63 137.18 63"/>
          </g>
          <polygon class="cls-3" points="189 148 95.25 148 95.19 148.33 75.41 114.76 75.76 114.56 95.48 149 189 149 189 148"/>
          <path class="cls-49" d="m168,63h-9v-9h9v9Zm-8,0h8v-8h-8v8Z"/>
          <path class="cls-49" d="m180,63h-9v-9h9v9Zm-9,0h8v-8h-8v8Z"/>
          <path class="cls-49" d="m168,75h-9v-9h9v9Zm-8,0h8v-8h-8v8Z"/>
          <path class="cls-49" d="m180,75h-9v-9h9v9Zm-9,0h8v-8h-8v8Z"/>
          <path class="cls-49" d="m168,87h-9v-9h9v9Zm-8,0h8v-8h-8v8Z"/>
          <path class="cls-49" d="m180,87h-9v-9h9v9Zm-9,0h8v-8h-8v8Z"/>
          <polygon class="cls-38" points="22.96 14 15 21.39 15 14 22.96 14"/>
          <rect class="cls-3" x="157" y="109" width="1" height="37"/>
          <rect class="cls-3" x="134" y="83" width="1" height="63"/>
          <path class="cls-3" d="m78.34,113.36l-.36-.19.18.09-.18-.09c.33-.83.17-19.7-.02-32.18h.41c.05,3.21.46,31.42-.02,32.36Z"/>
        </g>
        <ellipse class="cls-38" cx="207" cy="229.5" rx="54" ry="7.5"/>
        <rect class="cls-3" x="120.09" y="191.58" width="26.09" height=".41" transform="translate(-99.51 211.3) rotate(-60.03)"/>
        <rect class="cls-3" x="119.34" y="188.39" width="18.72" height=".41" transform="translate(-98.97 205.86) rotate(-60.03)"/>
        <g>
          <g>
            <path class="cls-49" d="m122.58,77.63c-2.65-1.62-5.01-3.82-6.87-6.54-3.45-5.03-4.73-11.1-3.6-17.1s4.51-11.19,9.54-14.64c5.03-3.45,11.1-4.73,17.1-3.6,5.99,1.12,11.19,4.51,14.64,9.54,3.45,5.03,4.73,11.1,3.6,17.1s-4.51,11.19-9.54,14.64c-7.66,5.25-17.41,5.17-24.86.61Zm22.66-36.87c-2.1-1.29-4.44-2.19-6.94-2.66-5.37-1-10.8.14-15.31,3.23-4.5,3.08-7.54,7.74-8.54,13.1-1,5.37.14,10.8,3.23,15.31,3.08,4.5,7.74,7.54,13.1,8.54,5.37,1,10.8-.14,15.31-3.23,4.5-3.08,7.54-7.74,8.54-13.1,1-5.37-.14-10.8-3.23-15.31-1.65-2.41-3.75-4.4-6.17-5.88Z"/>
            <path class="cls-49" d="m124.85,73.98c-2.19-1.34-4.09-3.15-5.59-5.33-2.8-4.08-3.84-9.01-2.93-13.88.91-4.86,3.66-9.08,7.74-11.88,8.43-5.77,19.98-3.61,25.76,4.82,5.77,8.43,3.61,19.98-4.82,25.76-4.08,2.8-9.01,3.84-13.88,2.92-2.26-.42-4.38-1.24-6.29-2.41Zm18.9-30.77c-5.73-3.51-13.24-3.57-19.13.47-3.87,2.65-6.48,6.65-7.34,11.27-.86,4.61.12,9.29,2.77,13.16,2.65,3.87,6.65,6.48,11.27,7.34,4.61.86,9.29-.12,13.16-2.77,7.99-5.47,10.04-16.43,4.57-24.43-1.44-2.1-3.25-3.79-5.29-5.04Z"/>
            <path class="cls-49" d="m149.58,88.62c-.61-.37-1.15-.88-1.58-1.5l-6.21-9.07,8.65-5.92,6.21,9.06c1.63,2.38,1.02,5.65-1.36,7.28h0c-1.76,1.2-4,1.19-5.71.14Zm-4.46-9.94l4.86,7.09c.89,1.3,2.66,1.63,3.96.74h0c1.3-.89,1.63-2.66.74-3.96l-4.86-7.09-4.7,3.22Z"/>
            <path class="cls-49" d="m169.9,115.38c-.4-.25-.76-.58-1.04-.99l-17.76-25.93,5.73-3.92,17.76,25.93c1.08,1.58.68,3.74-.9,4.82h0c-1.16.8-2.65.79-3.78.09Zm-15.48-26.3l16.41,23.96c.34.49,1.01.62,1.5.28.49-.34.62-1.01.28-1.5l-16.41-23.96-1.78,1.22Z"/>
            <path class="cls-49" d="m147.11,78.36h0l4.19-2.87,1.35,1.97-2.22,1.52c-1.09.75-2.58.47-3.32-.62Z"/>
          </g>
          <g>
            <path class="cls-15" d="m230.76,118.55l9.12,101.06-10.16.99-22.45-81.66s13.77-22.09,23.48-20.39Z"/>
            <path class="cls-13" d="m185.77,220.15s-8.46,6.93-11.65,7.26c-.56.06-1.06.56-1.15,1.23-.08.67.18,1.44,1.56,1.88,2.77.88,18.92.08,18.92.08,0,0,.25-2.76.52-5.69.13-1.42,1.18-3.84,1.18-3.84l-9.39-.92Z"/>
            <path class="cls-15" d="m230.21,125.75c-.27-.23-2.26-8.73-2.61-8.76l-29.49-2.32c-.36-.03-.68.23-.74.59-.66,4.54-4.62,32.36-6.28,52.94-1.65,20.43-5.28,47.83-5.32,51.96,0,.36.27.66.62.69l8.02.81c.36.04.69-.22.75-.58,0,0,22.71-48.37,27.2-75.77,1.36-8.32,10.86-17,7.85-19.55Z"/>
            <path class="cls-41" d="m219.74,77.24c-1.25.11-1.71-.21-2.95.02-2.7.49-10.6.86-11.16,1.86-.8,1.44-1.78,13.85-3.48,17.62-6.91,15.33-8.04,23.59-6.29,29.36.86,2.82,22.88,7.01,35.75,1.61,0,0,7.32-52.16-11.88-50.47Z"/>
            <path class="cls-73" d="m168.41,106.33s-5.37.59-5.3-1.08c.07-1.67.11-3.72,1.49-3.93,1.37-.21,4.53,1.64,4.53,1.64,0,0,.2,2.47-.72,3.38Z"/>
            <path class="cls-41" d="m205.53,78.79s-10.98,21.4-11.95,22.06c-.97.66-24.66,2.03-24.66,2.03l-.75,4.38s21.72,5.77,31.45,2.95c6.57-1.9,13.91-16.72,13.91-16.72,0,0-2.11-14.62-8-14.69Z"/>
            <path class="cls-13" d="m229.73,220.6s-6.84,5.49-10.05,5.57c-.56.01-1.1.48-1.24,1.14-.14.66.07,1.45,1.41,2,2.7,1.09,19.19,0,19.19,0,0,0,.46-2.74.96-5.63.24-1.4-.12-4.08-.12-4.08l-10.16.99Z"/>
            <polygon class="cls-11" points="215.69 170.28 220.24 155.14 217.96 173.44 221.82 193.12 215.69 170.28"/>
            <g>
              <path class="cls-73" d="m211.65,77.86c-.14-1.87.31-11.77.31-11.77,0,0,2.24.66,3.68,1.64.01-.3.09-.7.28-1.23,0,0,.45-1.04.97-.9.51.15,1.08.89.18,1.87l-.51,1.11h0c.1.15.18.3.22.45,0,0-.44,7.53.02,8.23l-5.15.6Z"/>
              <path class="cls-46" d="m211.65,75.54c0-.8.02-1.05.05-2.12.05-.05,0,0,0,0,0,0,2.45-.4,3.55-2.6,0,0-.83,4.78-3.6,4.72Z"/>
              <path class="cls-73" d="m210.99,65s.01,1.97-.4,2.62c-.41.65-.46,4.69.15,5.56.31.45,1.99.6,3.69-.72,1.7-1.31,2.1-4.57,2.1-4.57,0,0,.84-3.41-5.54-2.9Z"/>
            </g>
            <path class="cls-76" d="m231.57,104.03c2.63.99,16.03.52,14.43-14.56-.66-6.2-6.02-11.57-11.67-14.21-1.21-.57-2.48-1.05-3.53-1.88-.94-.75-1.65-1.74-2.34-2.72-1.73-2.49-3.37-5.1-5.66-7.09-2.29-1.99-5.38-3.33-8.35-2.72-3.35.68-5.72,5.38-4.04,8.21,3.78,6.38,2.56,27.95,21.16,34.98Z"/>
            <path class="cls-15" d="m198,112.84s15.01-4.04,15.62-19.35c0,0-1.38,13.69-15.62,17.11v2.24Z"/>
          </g>
        </g>
        <rect class="cls-3" x="94" y="163" width="90" height="1"/>
        <g>
          <g>
            <text class="cls-77" transform="translate(196.12 23.26)"><tspan x="0" y="0">FOR</tspan><tspan x="0" y="16.22">SALE</tspan></text>
            <polygon class="cls-60" points="189 43.04 196.39 51 189 51 189 43.04"/>
            <path class="cls-60" d="m245,51h-56V0h56v51Zm-56-1h55V0h-55v50Z"/>
            <rect class="cls-60" x="163" y="37" width="26" height="1"/>
          </g>
          <polygon class="cls-60" points="201 78 195 78 195 79 200 79 200 52 201 52 201 78"/>
        </g>
        <g>
          <text class="cls-77" transform="translate(40.97 36.69)"><tspan x="0" y="0">FOR</tspan><tspan x="-6.81" y="16.22">RENT</tspan></text>
          <path class="cls-38" d="m71,64H15V13h56v51Zm-56,0h55V14H15v50Z"/>
          <polygon class="cls-38" points="75 71 54 71 54 64 54 64 54 70 75 70 75 71"/>
        </g>
      </g>
    </g>
  </g>
</svg>